# xmcd
#
# Track frame offsets:
# 150
# 27226
# 55761
# 65264
# 95190
# 106160
# 122209
# 178816
# 227929
# 243578
# 262601
# 285332
# 305008
# 320161
#
# Disc length: 4463 seconds
#
# Revision: 0
# Processed by: cddbd v1.4PL0 Copyright (c) Steve Scherf et al.
# Submitted via: Audion 3.0.2 (http://www.panic.com/audion/)
#
DISCID=c6116d0e
DTITLE=major tom - major tom
DYEAR=1900
DGENRE=
TTITLE0=major tom 01
TTITLE1=major tom 02
TTITLE2=major tom 03
TTITLE3=major tom 04
TTITLE4=major tom 05
TTITLE5=major tom 06
TTITLE6=major tom 07
TTITLE7=major tom 08
TTITLE8=major tom 09
TTITLE9=major tom 10
TTITLE10=major tom 11
TTITLE11=major tom 12
TTITLE12=major tom 13
TTITLE13=major tom 14
EXTD=
EXTT0=
EXTT1=
EXTT2=
EXTT3=
EXTT4=
EXTT5=
EXTT6=
EXTT7=
EXTT8=
EXTT9=
EXTT10=
EXTT11=
EXTT12=
EXTT13=
PLAYORDER=
